<svg xmlns="http://www.w3.org/2000/svg" viewBox="0 0 168.18 47.17"><title>logo</title><g style="isolation:isolate"><g style="isolation:isolate"><path d="M20.07,3.54a10.78,10.78,0,0,1,3.19,8.11,10.8,10.8,0,0,1-3.19,8.11,11.41,11.41,0,0,1-8.3,3.09H.92v-.32h.42a2,2,0,0,0,1.42-.59,2.08,2.08,0,0,0,.62-1.43V2.59A1.61,1.61,0,0,0,2.76,1.3,2.11,2.11,0,0,0,1.34.77H1l0-.32H11.77A11.41,11.41,0,0,1,20.07,3.54ZM5.46,1.41V21.89h6.31a8.87,8.87,0,0,0,4.75-1.28,8.62,8.62,0,0,0,3.2-3.6,12,12,0,0,0,1.14-5.36,10.74,10.74,0,0,0-2.52-7.43,8.39,8.39,0,0,0-6.57-2.81Z" style="fill:#a6a6a6"/><path d="M44.82,22.53h.26v.32H38.52v-.32h.26a1.08,1.08,0,0,0,.92-.42,1.28,1.28,0,0,0,.32-.78,2.18,2.18,0,0,0-.12-.72l-1.76-4.26H30l-1.76,4.16a2.14,2.14,0,0,0-.16.79,1.42,1.42,0,0,0,.32.8,1.13,1.13,0,0,0,1,.43h.26v.32H23.54v-.32h.26a2.43,2.43,0,0,0,1.36-.47,3.41,3.41,0,0,0,1.14-1.39q7-15,7.29-15.68a7.78,7.78,0,0,0,.58-1.79h.29l7.9,17.47A2.78,2.78,0,0,0,44.82,22.53ZM30.46,15.39h7.29L34.17,6.62Z" style="fill:#a6a6a6"/><path d="M48.9,20.56A9.6,9.6,0,0,1,46,13.23,9.61,9.61,0,0,1,48.9,5.9a10.36,10.36,0,0,1,7.4-2.7A14.58,14.58,0,0,1,64,5.12l.71,4.54h-.29A6.76,6.76,0,0,0,61.8,5.5a9.55,9.55,0,0,0-5.47-1.34,7.42,7.42,0,0,0-5.76,2.45,9.46,9.46,0,0,0-2.23,6.64,9.48,9.48,0,0,0,2.24,6.64,8,8,0,0,0,6.2,2.45,9.39,9.39,0,0,0,6.8-2.79l0-4.25a1.06,1.06,0,0,0-.37-.92,1.7,1.7,0,0,0-1.1-.33h-.45v-.32h5.85v.32H67.1c-1,0-1.44.42-1.44,1.28v3.84a11.8,11.8,0,0,1-9.12,4.13A10.85,10.85,0,0,1,48.9,20.56Z" style="fill:#a6a6a6"/></g><g style="isolation:isolate"><path d="M70.14,21.54a9.32,9.32,0,0,1-.1-1.73,8.63,8.63,0,0,1,.48-2.72h.29c0,.23,0,.47,0,.7A4.63,4.63,0,0,0,72,21a4.06,4.06,0,0,0,3.14,1.3,4.66,4.66,0,0,0,3.31-1.22,4,4,0,0,0,1.29-3.06,3.89,3.89,0,0,0-1.24-3L72.31,9.38A5.11,5.11,0,0,1,70.58,5.5,5.46,5.46,0,0,1,72.1,1.62,5.39,5.39,0,0,1,76.22,0,13.92,13.92,0,0,1,79,.32h1.25V4.26h-.29a3,3,0,0,0-1-2.4A4,4,0,0,0,76.22,1a3.74,3.74,0,0,0-2.74,1.09,3.63,3.63,0,0,0-1.1,2.72,3.67,3.67,0,0,0,1.28,2.81L80,13.41a5.18,5.18,0,0,1,1.6,4,5.72,5.72,0,0,1-1.63,4.21,5.85,5.85,0,0,1-4.35,1.65,11.4,11.4,0,0,1-3-.44A5.19,5.19,0,0,1,70.14,21.54Z" style="fill:#737373"/><path d="M93.69,4.58V20.83a1.62,1.62,0,0,0,1,1.47,1.89,1.89,0,0,0,.93.23h.35v.32H89.34v-.32h.38A1.84,1.84,0,0,0,91,22a1.76,1.76,0,0,0,.58-1.22V4.58H85.82a1.49,1.49,0,0,0-1.17.48,1.65,1.65,0,0,0-.44,1.15v.51h-.35V3.1a7.42,7.42,0,0,0,1.81.39c.78.08,1.36.13,1.75.13H97.85a9.74,9.74,0,0,0,3.58-.52V6.72h-.35V6.21a1.62,1.62,0,0,0-.45-1.15,1.5,1.5,0,0,0-1.15-.48Z" style="fill:#737373"/><path d="M123.16,4h-.48a1.46,1.46,0,0,0-1.31.67,1.38,1.38,0,0,0-.23.67V16.1A6.79,6.79,0,0,1,119,21.36a9.83,9.83,0,0,1-11.7,0,6.69,6.69,0,0,1-2.15-5.25V5.34a1.23,1.23,0,0,0-.44-1,1.56,1.56,0,0,0-1.09-.4h-.48V3.65h6.08V4h-.48a1.56,1.56,0,0,0-1.09.4,1.24,1.24,0,0,0-.45,1v10.4a7.12,7.12,0,0,0,1.59,4.9,5.67,5.67,0,0,0,4.48,1.79,6.38,6.38,0,0,0,4.64-1.69,6.18,6.18,0,0,0,1.74-4.64V5.34a1.36,1.36,0,0,0-.46-1A1.6,1.6,0,0,0,118.13,4h-.48V3.65h5.51Z" style="fill:#737373"/><path d="M144.28,22.53h.26v.32H138v-.32h.26a1.09,1.09,0,0,0,.93-.42,1.34,1.34,0,0,0,.32-.78,2,2,0,0,0-.13-.72l-1.76-4.26H129.5l-1.76,4.16a2.14,2.14,0,0,0-.16.79,1.4,1.4,0,0,0,.31.8,1.16,1.16,0,0,0,1,.43h.25v.32H123v-.32h.26a2.45,2.45,0,0,0,1.36-.47,3.48,3.48,0,0,0,1.13-1.39q7-15,7.3-15.68a7.57,7.57,0,0,0,.57-1.79h.29l7.9,17.47A2.8,2.8,0,0,0,144.28,22.53Zm-14.37-7.14h7.3l-3.59-8.77Z" style="fill:#737373"/><path d="M167.64,4a1.75,1.75,0,0,0-1.22.46,1.58,1.58,0,0,0-.54,1.14V19.2a26.29,26.29,0,0,0,.22,3.52l.07.58h-.29L149.24,7.52V20.86a1.57,1.57,0,0,0,.51,1.19,1.76,1.76,0,0,0,1.25.48h.54v.32h-6v-.32H146a1.76,1.76,0,0,0,1.25-.48,1.57,1.57,0,0,0,.51-1.19V7.17a25.85,25.85,0,0,0-.22-3.49l-.07-.51.35,0,16.61,15.65V5.57a1.67,1.67,0,0,0-.58-1.14A1.73,1.73,0,0,0,162.68,4h-.55V3.65h6.05V4Z" style="fill:#737373"/></g></g><line y1="26.85" x2="167" y2="26.85" style="fill:none;stroke:#737373"/><g style="isolation:isolate"><path d="M12,35.29A4.29,4.29,0,0,1,9,39.42a3.6,3.6,0,0,1-1.14.22,5.29,5.29,0,0,1-2.44-.52v-.23a4.5,4.5,0,0,0,3.08-.36,3.42,3.42,0,0,0,1.71-2.1,3.15,3.15,0,0,0,.14-.87v-.5a4.07,4.07,0,0,0-.85-2.54,2.75,2.75,0,0,0-2.23-1H4.61V45.18a1.45,1.45,0,0,0,.44,1,1.38,1.38,0,0,0,1,.42h.3v.23h-5v-.23h.29a1.39,1.39,0,0,0,1-.42,1.45,1.45,0,0,0,.44-1V32.44a1.47,1.47,0,0,0-.47-.95,1.43,1.43,0,0,0-1-.37H1.39l0-.23h6a4.83,4.83,0,0,1,3.44,1.17A4.2,4.2,0,0,1,12,35.29Z" style="fill:#a6a6a6"/><path d="M24.33,46.62a1.33,1.33,0,0,0,.91-.35,1.21,1.21,0,0,0,.41-.86v-5H17.24v5a1.18,1.18,0,0,0,.41.86,1.33,1.33,0,0,0,.91.35h.27v.23H14.18v-.23h.28a1.32,1.32,0,0,0,1.32-1.23V34.63a1.24,1.24,0,0,0-.41-.87,1.31,1.31,0,0,0-.91-.36h-.28v-.23h4.65v.23h-.27a1.28,1.28,0,0,0-.91.35,1.17,1.17,0,0,0-.41.85v5.16h8.41V34.63a1,1,0,0,0-.3-.78,1.48,1.48,0,0,0-1-.45h-.28v-.23h4.66v.23h-.28a1.32,1.32,0,0,0-.91.34,1.13,1.13,0,0,0-.41.84V45.41a1,1,0,0,0,.3.75,1.48,1.48,0,0,0,1,.46h.28v.23H24.05v-.23Z" style="fill:#a6a6a6"/><path d="M34.56,33.75a8.75,8.75,0,0,1,7.73,0,7.08,7.08,0,0,1,2.8,2.54,7.21,7.21,0,0,1,0,7.43,7,7,0,0,1-2.8,2.55,7.8,7.8,0,0,1-3.6.9,9.32,9.32,0,0,1-3.26-.53A7.42,7.42,0,0,1,33,45.18a6.66,6.66,0,0,1-1.64-2.28,7.66,7.66,0,0,1-.61-3.15,6.41,6.41,0,0,1,1-3.46A7.05,7.05,0,0,1,34.56,33.75Zm-.42,10.92a6,6,0,0,0,8.56,0A6.45,6.45,0,0,0,44.44,40a6.48,6.48,0,0,0-1.74-4.67,6,6,0,0,0-8.56,0A6.55,6.55,0,0,0,32.42,40,6.52,6.52,0,0,0,34.14,44.67Z" style="fill:#a6a6a6"/><path d="M53.9,33.83V45.41a1.15,1.15,0,0,0,.68,1.05,1.34,1.34,0,0,0,.66.16h.25v.23H50.8v-.23h.27a1.3,1.3,0,0,0,.94-.37,1.27,1.27,0,0,0,.41-.86V33.83H48.29a1,1,0,0,0-.83.34,1.16,1.16,0,0,0-.31.82v.37H46.9V32.78a5.09,5.09,0,0,0,1.29.27c.55.06,1,.09,1.24.09h7.43a7.22,7.22,0,0,0,2.56-.36v2.58h-.25V35a1.17,1.17,0,0,0-.32-.82,1.08,1.08,0,0,0-.82-.34Z" style="fill:#a6a6a6"/><path d="M64,33.75a8.75,8.75,0,0,1,7.73,0,7.05,7.05,0,0,1,2.79,2.54,7.16,7.16,0,0,1,0,7.43,7,7,0,0,1-2.79,2.55,7.8,7.8,0,0,1-3.6.9,9.32,9.32,0,0,1-3.26-.53,7.42,7.42,0,0,1-2.45-1.46A6.66,6.66,0,0,1,60.8,42.9a7.5,7.5,0,0,1-.61-3.15,6.41,6.41,0,0,1,1-3.46A7.05,7.05,0,0,1,64,33.75ZM63.6,44.67a6,6,0,0,0,8.56,0A6.44,6.44,0,0,0,73.89,40a6.47,6.47,0,0,0-1.73-4.67,6,6,0,0,0-8.56,0A6.5,6.5,0,0,0,61.88,40,6.48,6.48,0,0,0,63.6,44.67Z" style="fill:#a6a6a6"/><path d="M79.88,45.22a6.85,6.85,0,0,1-2-5.22,6.82,6.82,0,0,1,2-5.22,7.33,7.33,0,0,1,5.27-1.93,10.32,10.32,0,0,1,5.48,1.37l.5,3.23h-.2a4.81,4.81,0,0,0-1.86-3,6.77,6.77,0,0,0-3.9-1,5.29,5.29,0,0,0-4.11,1.75A6.79,6.79,0,0,0,79.48,40a6.71,6.71,0,0,0,1.6,4.73,5.67,5.67,0,0,0,4.41,1.74,6.68,6.68,0,0,0,4.84-2l0-3a.76.76,0,0,0-.27-.65,1.17,1.17,0,0,0-.78-.24H89v-.23h4.17v.23h-.32c-.68,0-1,.3-1,.91v2.74a8.15,8.15,0,0,1-2.63,2.06,8.26,8.26,0,0,1-3.86.88A7.71,7.71,0,0,1,79.88,45.22Z" style="fill:#a6a6a6"/><path d="M98.79,33.87H97.58V45.39a1.23,1.23,0,0,0,.64,1.07,1.34,1.34,0,0,0,.66.16h.3l0,.23H94.53v-.23h.32a1.29,1.29,0,0,0,.9-.35,1.14,1.14,0,0,0,.37-.86V34.58a1.09,1.09,0,0,0-.37-.84,1.28,1.28,0,0,0-.9-.34h-.32v-.23h5.72a5.36,5.36,0,0,1,3.39,1,3.13,3.13,0,0,1,1.24,2.57,3.78,3.78,0,0,1-1,2.67,3.87,3.87,0,0,1-2.56,1.23,5.28,5.28,0,0,1,1.76,1.78,11.88,11.88,0,0,0,.78,1c.54.66,1,1.18,1.3,1.56s.6.65.81.85a2.77,2.77,0,0,0,1.94.8v.23h-.71a4.9,4.9,0,0,1-2.82-.71,6.67,6.67,0,0,1-1.42-1.3l-1.15-1.61c-.67-.95-1-1.45-1.08-1.51a3.28,3.28,0,0,0-2.3-1.53V40a10.43,10.43,0,0,0,3.21-.27,2.67,2.67,0,0,0,1-.82,3.73,3.73,0,0,0,.57-2,2.77,2.77,0,0,0-.82-2.14,3.4,3.4,0,0,0-2.21-.82C99.79,33.88,99.32,33.87,98.79,33.87Z" style="fill:#a6a6a6"/><path d="M122.62,46.62h.18v.23h-4.68v-.23h.19a.77.77,0,0,0,.66-.3.92.92,0,0,0,.23-.56,1.52,1.52,0,0,0-.09-.51l-1.26-3h-5.77l-1.25,3a1.53,1.53,0,0,0-.12.56,1,1,0,0,0,.23.57.8.8,0,0,0,.69.31h.18v.23h-4.35v-.23h.18a1.74,1.74,0,0,0,1-.33,2.55,2.55,0,0,0,.81-1c3.32-7.12,5.06-10.84,5.19-11.17a5.24,5.24,0,0,0,.41-1.28h.21l5.63,12.45A2,2,0,0,0,122.62,46.62Zm-10.24-5.08h5.2L115,35.29Z" style="fill:#a6a6a6"/><path d="M127.91,40.37a3.9,3.9,0,0,0,1,.14l.71,0a7.15,7.15,0,0,0,.78-.15,3.23,3.23,0,0,0,.91-.4,3.46,3.46,0,0,0,1.41-1.87,3.7,3.7,0,0,0,.16-1.23,2.69,2.69,0,0,0-1-2.19,4,4,0,0,0-2.64-.8H127V45.39a1.16,1.16,0,0,0,.66,1.07,1.34,1.34,0,0,0,.66.16h.32v.23h-4.72v-.23h.32a1.32,1.32,0,0,0,.92-.35,1.2,1.2,0,0,0,.4-.86V34.6a1.17,1.17,0,0,0-.4-.86,1.31,1.31,0,0,0-.92-.34h-.32v-.23h5.34a6.18,6.18,0,0,1,3.79,1,3.33,3.33,0,0,1,1.4,2.82,4.12,4.12,0,0,1-.59,2.24,4,4,0,0,1-3.6,1.87,5.55,5.55,0,0,1-2.37-.55Z" style="fill:#a6a6a6"/><path d="M146.69,46.62a1.35,1.35,0,0,0,.92-.35,1.25,1.25,0,0,0,.41-.86v-5H139.6v5a1.21,1.21,0,0,0,.41.86,1.35,1.35,0,0,0,.92.35h.27v.23h-4.65v-.23h.27a1.24,1.24,0,0,0,.92-.37,1.18,1.18,0,0,0,.4-.86V34.63a1.2,1.2,0,0,0-.41-.87,1.29,1.29,0,0,0-.91-.36h-.27v-.23h4.65v.23h-.27a1.31,1.31,0,0,0-.92.35,1.21,1.21,0,0,0-.41.85v5.16H148V34.63a1,1,0,0,0-.3-.78,1.48,1.48,0,0,0-1-.45h-.27v-.23h4.65v.23h-.27a1.34,1.34,0,0,0-.92.34,1.21,1.21,0,0,0-.41.84V45.41a1,1,0,0,0,.3.75,1.52,1.52,0,0,0,1,.46h.27v.23h-4.65v-.23Z" style="fill:#a6a6a6"/><path d="M167,33.4h-.28a2.25,2.25,0,0,0-1.17.33,2.94,2.94,0,0,0-.92.83l-4.38,6.63v4.2a1.14,1.14,0,0,0,.39.86,1.29,1.29,0,0,0,.93.37h.28v.23h-4.68v-.23h.28a1.29,1.29,0,0,0,.93-.37,1.14,1.14,0,0,0,.39-.86V41.17l-4.22-6.63a2.42,2.42,0,0,0-2.1-1.14h-.27v-.23h5.29v.23h-.28a.72.72,0,0,0-.62.27.87.87,0,0,0-.2.47,1.29,1.29,0,0,0,.05.35l3.33,5.91,3.53-5.89a.94.94,0,0,0,.07-.37.93.93,0,0,0-.19-.47.75.75,0,0,0-.65-.27h-.28v-.23H167Z" style="fill:#a6a6a6"/></g></svg>